<?xml version="1.0" encoding="UTF-8" standalone="no"?>
<!-- Created with Inkscape (http://www.inkscape.org/) -->

<svg
   xmlns:dc="http://purl.org/dc/elements/1.1/"
   xmlns:cc="http://creativecommons.org/ns#"
   xmlns:rdf="http://www.w3.org/1999/02/22-rdf-syntax-ns#"
   xmlns:svg="http://www.w3.org/2000/svg"
   xmlns="http://www.w3.org/2000/svg"
   xmlns:xlink="http://www.w3.org/1999/xlink"
   version="1.1"
   width="128"
   height="48"
   id="svg2">
  <defs
     id="defs4">
    <linearGradient
       id="linearGradient3792">
      <stop
         id="stop3794"
         style="stop-color:#ffff00;stop-opacity:1"
         offset="0" />
      <stop
         id="stop3796"
         style="stop-color:#ffff00;stop-opacity:0"
         offset="1" />
    </linearGradient>
    <linearGradient
       id="linearGradient3757">
      <stop
         id="stop3759"
         style="stop-color:#ffffff;stop-opacity:0.50980395"
         offset="0" />
      <stop
         id="stop3761"
         style="stop-color:#ff7f2a;stop-opacity:0.07843138"
         offset="1" />
    </linearGradient>
    <linearGradient
       x1="59.25"
       y1="1005.3623"
       x2="59.25"
       y2="1029.6174"
       id="linearGradient3763"
       xlink:href="#linearGradient3757"
       gradientUnits="userSpaceOnUse" />
    <linearGradient
       x1="118.79791"
       y1="26.433245"
       x2="103.06081"
       y2="26.433245"
       id="linearGradient3798"
       xlink:href="#linearGradient3792"
       gradientUnits="userSpaceOnUse"
       gradientTransform="matrix(0.94328737,0,0,0.94328737,9.8194573,1002.5976)" />
  </defs>
  <metadata
     id="metadata7">
    <rdf:RDF>
      <cc:Work
         rdf:about="">
        <dc:format>image/svg+xml</dc:format>
        <dc:type
           rdf:resource="http://purl.org/dc/dcmitype/StillImage" />
        <dc:title></dc:title>
      </cc:Work>
    </rdf:RDF>
  </metadata>
  <g
     transform="translate(0,-1004.3622)"
     id="layer1">
    <rect
       width="127.00809"
       height="47.008083"
       rx="8"
       ry="8"
       x="0.49595776"
       y="1004.8582"
       id="rect2985"
       style="fill:#ff7f2a;fill-rule:evenodd;stroke:#000000;stroke-width:0.99191552px;stroke-linecap:butt;stroke-linejoin:miter;stroke-opacity:1" />
    <path
       d="m 114.31801,1016.0689 0,4.687 c -1.22568,0.157 -2.33836,0.6386 -3.27203,1.3559 l -3.00673,-3.9795 -1.3265,1.0022 3.12464,4.1565 c -0.68915,0.8726 -1.15826,1.9239 -1.35597,3.0656 l -4.98174,0 0,1.6508 4.89331,0 c 0.0808,1.1929 0.47582,2.2952 1.09067,3.2426 l -3.36046,4.451 1.32649,1.0023 3.12465,-4.1269 c 1.0147,0.9337 2.30618,1.555 3.74367,1.7392 l 0,4.5396 1.68023,0 0,-4.5396 c 1.32011,-0.1521 2.5265,-0.6796 3.50784,-1.4739 l 3.09517,4.1269 1.32649,-1.0022 -3.27202,-4.3333 c 0.77295,-1.0268 1.26389,-2.2649 1.35598,-3.6257 l 4.80487,0 0,-1.6508 -4.89331,0 c -0.19629,-1.1335 -0.67476,-2.1673 -1.35598,-3.0363 l 3.09517,-4.0972 -1.35598,-1.0023 -2.94777,3.891 c -0.95335,-0.7292 -2.10629,-1.2114 -3.36046,-1.3559 l 0,-4.687 -1.68023,0 z"
       id="path2999"
       style="fill:url(#linearGradient3798);fill-opacity:1;stroke:none" />
    <rect
       width="127.00809"
       height="47.008083"
       rx="8"
       ry="8"
       x="0.49595776"
       y="1004.8582"
       id="rect2987"
       style="fill:url(#linearGradient3763);fill-opacity:1;fill-rule:evenodd;stroke:#000000;stroke-width:0.99191552px;stroke-linecap:butt;stroke-linejoin:miter;stroke-opacity:1" />
  </g>
</svg>
